STARTFONT 2.1
FONT -Monotype-Courier-Bold-I-Normal--11-80-100-100-M-58-iso8859-5
SIZE 8 100 100
FONTBOUNDINGBOX 10 12 -2 -3

STARTPROPERTIES 24
FOUNDRY "Monotype"
FAMILY_NAME "Courier"
WEIGHT_NAME "Bold"
SLANT "I"
SETWIDTH_NAME "Normal"
ADD_STYLE_NAME ""
PIXEL_SIZE 11
POINT_SIZE 80
RESOLUTION_X 100
RESOLUTION_Y 100
SPACING "M"
AVERAGE_WIDTH 58
CHARSET_REGISTRY "iso8859"
CHARSET_ENCODING "5"
FACE_NAME "Courier Bold Inclined ISO Latin Cyrillic"
_DEC_DEVICE_FONTNAMES "PS=courier-bin-latcyrillic"
COPYRIGHT "Copyright (c) 1994 Monotype Typography Ltd."
CAP_HEIGHT 7
X_HEIGHT 5
WEIGHT 10
QUAD_WIDTH 6
DEFAULT_CHAR 160
FONT_DESCENT 3
FONT_ASCENT 9
ENDPROPERTIES

CHARS 191

STARTCHAR space
ENCODING 32
SWIDTH 600 0
DWIDTH 6 0
BBX 0 0 0 0
BITMAP
ENDCHAR

STARTCHAR exclam
ENCODING 33
SWIDTH 600 0
DWIDTH 6 0
BBX 4 7 1 0
BITMAP
30
30
20
60
60
00
C0
ENDCHAR

STARTCHAR quotedbl
ENCODING 34
SWIDTH 600 0
DWIDTH 6 0
BBX 3 3 2 3
BITMAP
A0
A0
A0
ENDCHAR

STARTCHAR numbersign
ENCODING 35
SWIDTH 600 0
DWIDTH 6 0
BBX 5 7 1 -1
BITMAP
28
28
F8
50
F8
A0
A0
ENDCHAR

STARTCHAR dollar
ENCODING 36
SWIDTH 600 0
DWIDTH 6 0
BBX 6 8 0 -1
BITMAP
08
3C
64
70
18
98
F0
20
ENDCHAR

STARTCHAR percent
ENCODING 37
SWIDTH 600 0
DWIDTH 6 0
BBX 6 6 0 0
BITMAP
60
AC
D0
2C
D4
18
ENDCHAR

STARTCHAR ampersand
ENCODING 38
SWIDTH 600 0
DWIDTH 6 0
BBX 6 6 0 0
BITMAP
1C
24
30
78
B0
7C
ENDCHAR

STARTCHAR quoteright
ENCODING 39
SWIDTH 600 0
DWIDTH 6 0
BBX 2 2 2 4
BITMAP
40
80
ENDCHAR

STARTCHAR parenleft
ENCODING 40
SWIDTH 600 0
DWIDTH 6 0
BBX 5 9 1 -2
BITMAP
18
30
60
40
C0
C0
40
60
20
ENDCHAR

STARTCHAR parenright
ENCODING 41
SWIDTH 600 0
DWIDTH 6 0
BBX 4 9 1 -2
BITMAP
40
60
20
30
30
20
60
C0
80
ENDCHAR

STARTCHAR asterisk
ENCODING 42
SWIDTH 600 0
DWIDTH 6 0
BBX 4 4 2 2
BITMAP
20
F0
60
A0
ENDCHAR

STARTCHAR plus
ENCODING 43
SWIDTH 600 0
DWIDTH 6 0
BBX 6 5 0 0
BITMAP
10
10
FC
20
20
ENDCHAR

STARTCHAR comma
ENCODING 44
SWIDTH 600 0
DWIDTH 6 0
BBX 2 2 2 -1
BITMAP
40
80
ENDCHAR

STARTCHAR minus
ENCODING 45
SWIDTH 600 0
DWIDTH 6 0
BBX 4 1 1 2
BITMAP
F0
ENDCHAR

STARTCHAR period
ENCODING 46
SWIDTH 600 0
DWIDTH 6 0
BBX 2 1 2 0
BITMAP
C0
ENDCHAR

STARTCHAR slash
ENCODING 47
SWIDTH 600 0
DWIDTH 6 0
BBX 4 8 1 -1
BITMAP
10
10
20
20
40
40
80
80
ENDCHAR

STARTCHAR zero
ENCODING 48
SWIDTH 600 0
DWIDTH 6 0
BBX 5 6 1 0
BITMAP
30
58
D8
D8
D0
60
ENDCHAR

STARTCHAR one
ENCODING 49
SWIDTH 600 0
DWIDTH 6 0
BBX 4 6 1 0
BITMAP
30
F0
20
60
60
F0
ENDCHAR

STARTCHAR two
ENCODING 50
SWIDTH 600 0
DWIDTH 6 0
BBX 5 6 1 0
BITMAP
30
58
18
30
60
F0
ENDCHAR

STARTCHAR three
ENCODING 51
SWIDTH 600 0
DWIDTH 6 0
BBX 6 6 0 0
BITMAP
38
4C
1C
08
98
70
ENDCHAR

STARTCHAR four
ENCODING 52
SWIDTH 600 0
DWIDTH 6 0
BBX 5 6 1 0
BITMAP
18
38
58
B0
F8
30
ENDCHAR

STARTCHAR five
ENCODING 53
SWIDTH 600 0
DWIDTH 6 0
BBX 5 6 1 0
BITMAP
78
40
60
30
30
E0
ENDCHAR

STARTCHAR six
ENCODING 54
SWIDTH 600 0
DWIDTH 6 0
BBX 5 6 1 0
BITMAP
38
60
F0
D0
D0
60
ENDCHAR

STARTCHAR seven
ENCODING 55
SWIDTH 600 0
DWIDTH 6 0
BBX 5 6 1 0
BITMAP
F8
90
30
60
C0
C0
ENDCHAR

STARTCHAR eight
ENCODING 56
SWIDTH 600 0
DWIDTH 6 0
BBX 5 6 1 0
BITMAP
38
68
70
B0
B0
E0
ENDCHAR

STARTCHAR nine
ENCODING 57
SWIDTH 600 0
DWIDTH 6 0
BBX 5 6 1 0
BITMAP
30
58
58
78
30
E0
ENDCHAR

STARTCHAR colon
ENCODING 58
SWIDTH 600 0
DWIDTH 6 0
BBX 3 4 2 0
BITMAP
60
00
00
C0
ENDCHAR

STARTCHAR semicolon
ENCODING 59
SWIDTH 600 0
DWIDTH 6 0
BBX 3 5 2 -1
BITMAP
60
00
00
40
80
ENDCHAR

STARTCHAR less
ENCODING 60
SWIDTH 600 0
DWIDTH 6 0
BBX 5 5 1 0
BITMAP
18
60
C0
60
10
ENDCHAR

STARTCHAR equal
ENCODING 61
SWIDTH 600 0
DWIDTH 6 0
BBX 6 3 0 1
BITMAP
7C
00
F8
ENDCHAR

STARTCHAR greater
ENCODING 62
SWIDTH 600 0
DWIDTH 6 0
BBX 5 5 1 0
BITMAP
40
30
18
30
C0
ENDCHAR

STARTCHAR question
ENCODING 63
SWIDTH 600 0
DWIDTH 6 0
BBX 5 7 1 0
BITMAP
70
98
98
30
60
00
C0
ENDCHAR

STARTCHAR at
ENCODING 64
SWIDTH 600 0
DWIDTH 6 0
BBX 5 7 1 -1
BITMAP
38
48
58
A8
B0
80
70
ENDCHAR

STARTCHAR A
ENCODING 65
SWIDTH 600 0
DWIDTH 6 0
BBX 7 6 -1 0
BITMAP
1C
0C
14
34
6C
E6
ENDCHAR

STARTCHAR B
ENCODING 66
SWIDTH 600 0
DWIDTH 6 0
BBX 6 6 0 0
BITMAP
78
24
7C
68
CC
F8
ENDCHAR

STARTCHAR C
ENCODING 67
SWIDTH 600 0
DWIDTH 6 0
BBX 6 6 0 0
BITMAP
34
6C
C4
C0
D8
70
ENDCHAR

STARTCHAR D
ENCODING 68
SWIDTH 600 0
DWIDTH 6 0
BBX 7 6 -1 0
BITMAP
7C
36
22
66
4C
F8
ENDCHAR

STARTCHAR E
ENCODING 69
SWIDTH 600 0
DWIDTH 6 0
BBX 6 6 0 0
BITMAP
7C
24
78
60
C8
F8
ENDCHAR

STARTCHAR F
ENCODING 70
SWIDTH 600 0
DWIDTH 6 0
BBX 7 6 0 0
BITMAP
7C
26
78
68
C0
E0
ENDCHAR

STARTCHAR G
ENCODING 71
SWIDTH 600 0
DWIDTH 6 0
BBX 6 6 0 0
BITMAP
3C
64
C0
DC
C8
78
ENDCHAR

STARTCHAR H
ENCODING 72
SWIDTH 600 0
DWIDTH 6 0
BBX 8 6 -1 0
BITMAP
3B
32
3E
64
6C
EC
ENDCHAR

STARTCHAR I
ENCODING 73
SWIDTH 600 0
DWIDTH 6 0
BBX 7 6 0 0
BITMAP
3E
18
18
30
30
F8
ENDCHAR

STARTCHAR J
ENCODING 74
SWIDTH 600 0
DWIDTH 6 0
BBX 6 6 0 0
BITMAP
3C
18
18
90
B0
E0
ENDCHAR

STARTCHAR K
ENCODING 75
SWIDTH 600 0
DWIDTH 6 0
BBX 8 6 -1 0
BITMAP
3B
14
38
38
6C
F6
ENDCHAR

STARTCHAR L
ENCODING 76
SWIDTH 600 0
DWIDTH 6 0
BBX 6 6 0 0
BITMAP
78
30
30
60
64
FC
ENDCHAR

STARTCHAR M
ENCODING 77
SWIDTH 600 0
DWIDTH 6 0
BBX 8 6 -1 0
BITMAP
33
36
2A
64
64
EE
ENDCHAR

STARTCHAR N
ENCODING 78
SWIDTH 600 0
DWIDTH 6 0
BBX 7 6 0 0
BITMAP
76
34
74
58
D8
D8
ENDCHAR

STARTCHAR O
ENCODING 79
SWIDTH 600 0
DWIDTH 6 0
BBX 6 6 0 0
BITMAP
38
6C
44
CC
C8
70
ENDCHAR

STARTCHAR P
ENCODING 80
SWIDTH 600 0
DWIDTH 6 0
BBX 6 6 0 0
BITMAP
78
34
24
78
60
E0
ENDCHAR

STARTCHAR Q
ENCODING 81
SWIDTH 600 0
DWIDTH 6 0
BBX 6 7 0 -1
BITMAP
38
6C
C4
CC
C8
70
18
ENDCHAR

STARTCHAR R
ENCODING 82
SWIDTH 600 0
DWIDTH 6 0
BBX 6 6 0 0
BITMAP
78
24
2C
70
D8
CC
ENDCHAR

STARTCHAR S
ENCODING 83
SWIDTH 600 0
DWIDTH 6 0
BBX 6 6 0 0
BITMAP
3C
64
78
1C
88
F0
ENDCHAR

STARTCHAR T
ENCODING 84
SWIDTH 600 0
DWIDTH 6 0
BBX 7 6 0 0
BITMAP
7E
94
30
30
60
F0
ENDCHAR

STARTCHAR U
ENCODING 85
SWIDTH 600 0
DWIDTH 6 0
BBX 7 6 0 0
BITMAP
76
64
6C
C8
C8
70
ENDCHAR

STARTCHAR V
ENCODING 86
SWIDTH 600 0
DWIDTH 6 0
BBX 6 6 0 0
BITMAP
EC
4C
58
70
60
40
ENDCHAR

STARTCHAR W
ENCODING 87
SWIDTH 600 0
DWIDTH 6 0
BBX 7 6 0 0
BITMAP
C6
54
54
7C
78
50
ENDCHAR

STARTCHAR X
ENCODING 88
SWIDTH 600 0
DWIDTH 6 0
BBX 7 6 0 0
BITMAP
72
34
18
38
68
CC
ENDCHAR

STARTCHAR Y
ENCODING 89
SWIDTH 600 0
DWIDTH 6 0
BBX 6 6 0 0
BITMAP
F4
68
30
60
60
F0
ENDCHAR

STARTCHAR Z
ENCODING 90
SWIDTH 600 0
DWIDTH 6 0
BBX 6 6 0 0
BITMAP
3C
4C
18
30
68
F8
ENDCHAR

STARTCHAR bracketleft
ENCODING 91
SWIDTH 600 0
DWIDTH 6 0
BBX 6 9 0 -2
BITMAP
3C
30
30
60
60
60
C0
C0
F8
ENDCHAR

STARTCHAR backslash
ENCODING 92
SWIDTH 600 0
DWIDTH 6 0
BBX 4 8 1 -1
BITMAP
80
80
40
40
20
20
10
10
ENDCHAR

STARTCHAR bracketright
ENCODING 93
SWIDTH 600 0
DWIDTH 6 0
BBX 6 9 0 -2
BITMAP
1C
0C
18
18
18
30
30
30
E0
ENDCHAR

STARTCHAR asciicircum
ENCODING 94
SWIDTH 600 0
DWIDTH 6 0
BBX 4 3 1 4
BITMAP
60
F0
90
ENDCHAR

STARTCHAR underscore
ENCODING 95
SWIDTH 600 0
DWIDTH 6 0
BBX 6 1 0 -2
BITMAP
FC
ENDCHAR

STARTCHAR quoteleft
ENCODING 96
SWIDTH 600 0
DWIDTH 6 0
BBX 2 2 2 4
BITMAP
80
40
ENDCHAR

STARTCHAR a
ENCODING 97
SWIDTH 600 0
DWIDTH 6 0
BBX 6 5 0 0
BITMAP
38
0C
7C
D8
FC
ENDCHAR

STARTCHAR b
ENCODING 98
SWIDTH 600 0
DWIDTH 6 0
BBX 6 7 0 0
BITMAP
70
30
38
6C
4C
D8
F0
ENDCHAR

STARTCHAR c
ENCODING 99
SWIDTH 600 0
DWIDTH 6 0
BBX 6 5 0 0
BITMAP
38
6C
C0
CC
78
ENDCHAR

STARTCHAR d
ENCODING 100
SWIDTH 600 0
DWIDTH 6 0
BBX 7 7 0 0
BITMAP
0E
06
3C
6C
CC
D8
7C
ENDCHAR

STARTCHAR e
ENCODING 101
SWIDTH 600 0
DWIDTH 6 0
BBX 6 5 0 0
BITMAP
38
6C
FC
C0
78
ENDCHAR

STARTCHAR f
ENCODING 102
SWIDTH 600 0
DWIDTH 6 0
BBX 7 7 0 0
BITMAP
0E
18
7C
30
60
60
F0
ENDCHAR

STARTCHAR g
ENCODING 103
SWIDTH 600 0
DWIDTH 6 0
BBX 6 7 0 -2
BITMAP
34
6C
CC
D8
78
10
E0
ENDCHAR

STARTCHAR h
ENCODING 104
SWIDTH 600 0
DWIDTH 6 0
BBX 6 7 0 0
BITMAP
70
30
2C
7C
6C
C8
DC
ENDCHAR

STARTCHAR i
ENCODING 105
SWIDTH 600 0
DWIDTH 6 0
BBX 6 7 0 0
BITMAP
0C
00
38
18
10
30
FC
ENDCHAR

STARTCHAR j
ENCODING 106
SWIDTH 600 0
DWIDTH 6 0
BBX 7 9 -1 -2
BITMAP
06
00
3C
0C
08
18
18
30
E0
ENDCHAR

STARTCHAR k
ENCODING 107
SWIDTH 600 0
DWIDTH 6 0
BBX 8 7 -1 0
BITMAP
38
18
37
2C
38
68
EC
ENDCHAR

STARTCHAR l
ENCODING 108
SWIDTH 600 0
DWIDTH 6 0
BBX 6 7 0 0
BITMAP
1C
0C
18
18
30
30
F8
ENDCHAR

STARTCHAR m
ENCODING 109
SWIDTH 600 0
DWIDTH 6 0
BBX 7 5 -1 0
BITMAP
7C
2A
2A
54
D6
ENDCHAR

STARTCHAR n
ENCODING 110
SWIDTH 600 0
DWIDTH 6 0
BBX 6 5 0 0
BITMAP
D8
6C
6C
D8
DC
ENDCHAR

STARTCHAR o
ENCODING 111
SWIDTH 600 0
DWIDTH 6 0
BBX 6 5 0 0
BITMAP
38
6C
CC
D8
70
ENDCHAR

STARTCHAR p
ENCODING 112
SWIDTH 600 0
DWIDTH 6 0
BBX 7 7 -1 -2
BITMAP
7C
36
26
6C
78
60
F0
ENDCHAR

STARTCHAR q
ENCODING 113
SWIDTH 600 0
DWIDTH 6 0
BBX 7 7 0 -2
BITMAP
36
6C
CC
C8
78
18
38
ENDCHAR

STARTCHAR r
ENCODING 114
SWIDTH 600 0
DWIDTH 6 0
BBX 7 5 0 0
BITMAP
76
38
30
60
F0
ENDCHAR

STARTCHAR s
ENCODING 115
SWIDTH 600 0
DWIDTH 6 0
BBX 6 5 0 0
BITMAP
3C
74
38
98
F0
ENDCHAR

STARTCHAR t
ENCODING 116
SWIDTH 600 0
DWIDTH 6 0
BBX 5 7 1 0
BITMAP
30
60
F8
60
C0
D8
70
ENDCHAR

STARTCHAR u
ENCODING 117
SWIDTH 600 0
DWIDTH 6 0
BBX 6 5 0 0
BITMAP
EC
6C
C8
D8
7C
ENDCHAR

STARTCHAR v
ENCODING 118
SWIDTH 600 0
DWIDTH 6 0
BBX 7 5 0 0
BITMAP
EE
64
78
30
20
ENDCHAR

STARTCHAR w
ENCODING 119
SWIDTH 600 0
DWIDTH 6 0
BBX 7 5 0 0
BITMAP
D6
54
7C
78
50
ENDCHAR

STARTCHAR x
ENCODING 120
SWIDTH 600 0
DWIDTH 6 0
BBX 6 5 0 0
BITMAP
6C
38
30
78
DC
ENDCHAR

STARTCHAR y
ENCODING 121
SWIDTH 600 0
DWIDTH 6 0
BBX 9 7 -2 -2
BITMAP
3B80
1B00
1A00
1C00
1800
1000
E000
ENDCHAR

STARTCHAR z
ENCODING 122
SWIDTH 600 0
DWIDTH 6 0
BBX 7 5 -1 0
BITMAP
3E
4C
38
66
FC
ENDCHAR

STARTCHAR braceleft
ENCODING 123
SWIDTH 600 0
DWIDTH 6 0
BBX 5 9 1 -2
BITMAP
18
30
30
60
C0
60
60
60
30
ENDCHAR

STARTCHAR bar
ENCODING 124
SWIDTH 600 0
DWIDTH 6 0
BBX 1 9 3 -3
BITMAP
80
80
80
80
80
80
80
80
80
ENDCHAR

STARTCHAR braceright
ENCODING 125
SWIDTH 600 0
DWIDTH 6 0
BBX 5 9 0 -2
BITMAP
60
30
30
30
18
30
60
60
C0
ENDCHAR

STARTCHAR asciitilde
ENCODING 126
SWIDTH 600 0
DWIDTH 6 0
BBX 5 2 1 2
BITMAP
68
B0
ENDCHAR

STARTCHAR space
ENCODING 160
SWIDTH 600 0
DWIDTH 7 0
BBX 0 0 0 0
BITMAP
ENDCHAR

STARTCHAR afii10023
ENCODING 161
SWIDTH 600 0
DWIDTH 6 0
BBX 6 8 0 0
BITMAP
28
00
7C
24
78
60
C8
F8
ENDCHAR

STARTCHAR afii10051
ENCODING 162
SWIDTH 600 0
DWIDTH 6 0
BBX 7 7 0 -1
BITMAP
7C
B2
3C
6C
64
6C
08
ENDCHAR

STARTCHAR afii10052
ENCODING 163
SWIDTH 600 0
DWIDTH 6 0
BBX 7 9 -1 0
BITMAP
08
10
00
7E
36
30
60
60
F0
ENDCHAR

STARTCHAR afii10053
ENCODING 164
SWIDTH 600 0
DWIDTH 6 0
BBX 6 6 0 0
BITMAP
3C
64
70
C0
C8
70
ENDCHAR

STARTCHAR afii10054
ENCODING 165
SWIDTH 600 0
DWIDTH 6 0
BBX 6 6 0 0
BITMAP
3C
44
70
38
88
F0
ENDCHAR

STARTCHAR afii10055
ENCODING 166
SWIDTH 600 0
DWIDTH 6 0
BBX 7 6 0 0
BITMAP
3E
18
18
30
30
F8
ENDCHAR

STARTCHAR afii10056
ENCODING 167
SWIDTH 600 0
DWIDTH 6 0
BBX 7 8 0 0
BITMAP
12
00
3E
18
18
30
30
F8
ENDCHAR

STARTCHAR afii10057
ENCODING 168
SWIDTH 600 0
DWIDTH 6 0
BBX 6 6 0 0
BITMAP
3C
18
18
90
B0
E0
ENDCHAR

STARTCHAR afii10058
ENCODING 169
SWIDTH 600 0
DWIDTH 6 0
BBX 6 6 0 0
BITMAP
3C
18
1C
34
B4
F8
ENDCHAR

STARTCHAR afii10059
ENCODING 170
SWIDTH 600 0
DWIDTH 6 0
BBX 6 6 0 0
BITMAP
58
58
7C
B4
AC
B8
ENDCHAR

STARTCHAR afii10060
ENCODING 171
SWIDTH 600 0
DWIDTH 6 0
BBX 7 6 0 0
BITMAP
7C
B2
38
6C
6C
EC
ENDCHAR

STARTCHAR afii10061
ENCODING 172
SWIDTH 600 0
DWIDTH 6 0
BBX 7 9 -1 0
BITMAP
04
08
00
76
2A
38
78
68
EC
ENDCHAR

STARTCHAR hyphen
ENCODING 173
SWIDTH 600 0
DWIDTH 6 0
BBX 4 1 1 2
BITMAP
F0
ENDCHAR

STARTCHAR afii10062
ENCODING 174
SWIDTH 600 0
DWIDTH 6 0
BBX 7 9 -1 0
BITMAP
12
0C
00
76
36
1C
18
B0
E0
ENDCHAR

STARTCHAR afii10145
ENCODING 175
SWIDTH 600 0
DWIDTH 6 0
BBX 8 6 -1 0
BITMAP
3B
32
36
64
6C
FC
ENDCHAR

STARTCHAR afii10017
ENCODING 176
SWIDTH 600 0
DWIDTH 6 0
BBX 7 6 -1 0
BITMAP
1C
0C
14
34
6C
E6
ENDCHAR

STARTCHAR afii10018
ENCODING 177
SWIDTH 600 0
DWIDTH 6 0
BBX 8 6 -1 0
BITMAP
3F
31
3C
66
66
FC
ENDCHAR

STARTCHAR afii10019
ENCODING 178
SWIDTH 600 0
DWIDTH 6 0
BBX 6 6 0 0
BITMAP
78
24
7C
68
CC
F8
ENDCHAR

STARTCHAR afii10020
ENCODING 179
SWIDTH 600 0
DWIDTH 6 0
BBX 7 6 -1 0
BITMAP
7E
36
30
60
60
F0
ENDCHAR

STARTCHAR afii10021
ENCODING 180
SWIDTH 600 0
DWIDTH 6 0
BBX 7 7 0 -1
BITMAP
7E
36
24
6C
48
FC
84
ENDCHAR

STARTCHAR afii10022
ENCODING 181
SWIDTH 600 0
DWIDTH 6 0
BBX 6 6 0 0
BITMAP
7C
24
78
60
C8
F8
ENDCHAR

STARTCHAR afii10024
ENCODING 182
SWIDTH 600 0
DWIDTH 6 0
BBX 7 6 0 0
BITMAP
6A
2A
3C
54
54
D4
ENDCHAR

STARTCHAR afii10025
ENCODING 183
SWIDTH 600 0
DWIDTH 6 0
BBX 6 6 0 0
BITMAP
78
4C
18
0C
18
F0
ENDCHAR

STARTCHAR afii10026
ENCODING 184
SWIDTH 600 0
DWIDTH 6 0
BBX 8 6 -1 0
BITMAP
63
26
2E
5C
74
E6
ENDCHAR

STARTCHAR afii10027
ENCODING 185
SWIDTH 600 0
DWIDTH 6 0
BBX 8 9 -1 0
BITMAP
11
0E
00
63
26
2E
5C
74
E6
ENDCHAR

STARTCHAR afii10028
ENCODING 186
SWIDTH 600 0
DWIDTH 6 0
BBX 7 6 -1 0
BITMAP
76
2A
38
78
68
EC
ENDCHAR

STARTCHAR afii10029
ENCODING 187
SWIDTH 600 0
DWIDTH 6 0
BBX 7 6 -1 0
BITMAP
1E
16
36
34
AC
EC
ENDCHAR

STARTCHAR afii10030
ENCODING 188
SWIDTH 600 0
DWIDTH 6 0
BBX 8 6 -1 0
BITMAP
33
36
2A
64
64
EE
ENDCHAR

STARTCHAR afii10031
ENCODING 189
SWIDTH 600 0
DWIDTH 6 0
BBX 8 6 -1 0
BITMAP
3B
32
3E
64
6C
EC
ENDCHAR

STARTCHAR afii10032
ENCODING 190
SWIDTH 600 0
DWIDTH 6 0
BBX 6 6 0 0
BITMAP
38
6C
44
CC
C8
70
ENDCHAR

STARTCHAR afii10033
ENCODING 191
SWIDTH 600 0
DWIDTH 6 0
BBX 8 6 -1 0
BITMAP
3F
33
32
66
64
EC
ENDCHAR

STARTCHAR afii10034
ENCODING 192
SWIDTH 600 0
DWIDTH 6 0
BBX 6 6 0 0
BITMAP
78
34
24
78
60
E0
ENDCHAR

STARTCHAR afii10035
ENCODING 193
SWIDTH 600 0
DWIDTH 6 0
BBX 6 6 0 0
BITMAP
34
6C
C4
C0
D8
70
ENDCHAR

STARTCHAR afii10036
ENCODING 194
SWIDTH 600 0
DWIDTH 6 0
BBX 7 6 0 0
BITMAP
7E
94
30
30
60
F0
ENDCHAR

STARTCHAR afii10037
ENCODING 195
SWIDTH 600 0
DWIDTH 6 0
BBX 7 6 -1 0
BITMAP
76
36
1C
18
B0
E0
ENDCHAR

STARTCHAR afii10038
ENCODING 196
SWIDTH 600 0
DWIDTH 6 0
BBX 6 6 0 0
BITMAP
18
38
54
B4
78
30
ENDCHAR

STARTCHAR afii10039
ENCODING 197
SWIDTH 600 0
DWIDTH 6 0
BBX 6 6 0 0
BITMAP
64
2C
18
30
68
CC
ENDCHAR

STARTCHAR afii10040
ENCODING 198
SWIDTH 600 0
DWIDTH 6 0
BBX 8 8 -1 -2
BITMAP
3B
32
36
64
6C
FE
06
04
ENDCHAR

STARTCHAR afii10041
ENCODING 199
SWIDTH 600 0
DWIDTH 6 0
BBX 6 6 0 0
BITMAP
6C
6C
C8
F8
18
38
ENDCHAR

STARTCHAR afii10042
ENCODING 200
SWIDTH 600 0
DWIDTH 6 0
BBX 7 6 -1 0
BITMAP
7E
2A
2A
54
54
FC
ENDCHAR

STARTCHAR afii10043
ENCODING 201
SWIDTH 600 0
DWIDTH 6 0
BBX 7 7 -1 -1
BITMAP
7E
2A
2A
54
54
FC
04
ENDCHAR

STARTCHAR afii10044
ENCODING 202
SWIDTH 600 0
DWIDTH 6 0
BBX 5 6 1 0
BITMAP
F0
B0
38
68
58
F0
ENDCHAR

STARTCHAR afii10045
ENCODING 203
SWIDTH 600 0
DWIDTH 6 0
BBX 8 6 -1 0
BITMAP
73
33
3A
6E
5E
F4
ENDCHAR

STARTCHAR afii10046
ENCODING 204
SWIDTH 600 0
DWIDTH 6 0
BBX 6 6 0 0
BITMAP
70
30
3C
64
4C
F8
ENDCHAR

STARTCHAR afii10047
ENCODING 205
SWIDTH 600 0
DWIDTH 6 0
BBX 6 6 0 0
BITMAP
78
4C
1C
0C
98
70
ENDCHAR

STARTCHAR afii10048
ENCODING 206
SWIDTH 600 0
DWIDTH 6 0
BBX 6 6 0 0
BITMAP
5C
74
F4
A4
BC
B8
ENDCHAR

STARTCHAR afii10049
ENCODING 207
SWIDTH 600 0
DWIDTH 6 0
BBX 7 6 -1 0
BITMAP
1E
36
26
3C
6C
CC
ENDCHAR

STARTCHAR afii10065
ENCODING 208
SWIDTH 600 0
DWIDTH 6 0
BBX 6 5 0 0
BITMAP
38
0C
7C
D8
FC
ENDCHAR

STARTCHAR afii10066
ENCODING 209
SWIDTH 600 0
DWIDTH 6 0
BBX 6 7 0 0
BITMAP
3C
40
78
EC
CC
D8
70
ENDCHAR

STARTCHAR afii10067
ENCODING 210
SWIDTH 600 0
DWIDTH 6 0
BBX 6 5 0 0
BITMAP
78
2C
78
6C
F8
ENDCHAR

STARTCHAR afii10068
ENCODING 211
SWIDTH 600 0
DWIDTH 6 0
BBX 7 5 0 0
BITMAP
7E
36
20
60
E0
ENDCHAR

STARTCHAR afii10069
ENCODING 212
SWIDTH 600 0
DWIDTH 6 0
BBX 7 6 -1 -1
BITMAP
3E
16
34
6C
FC
84
ENDCHAR

STARTCHAR afii10070
ENCODING 213
SWIDTH 600 0
DWIDTH 6 0
BBX 6 5 0 0
BITMAP
38
6C
FC
C0
78
ENDCHAR

STARTCHAR afii10072
ENCODING 214
SWIDTH 600 0
DWIDTH 6 0
BBX 6 5 0 0
BITMAP
D4
54
78
A8
AC
ENDCHAR

STARTCHAR afii10073
ENCODING 215
SWIDTH 600 0
DWIDTH 6 0
BBX 6 5 0 0
BITMAP
38
4C
18
98
70
ENDCHAR

STARTCHAR afii10074
ENCODING 216
SWIDTH 600 0
DWIDTH 6 0
BBX 7 5 0 0
BITMAP
66
2C
5C
78
EC
ENDCHAR

STARTCHAR afii10075
ENCODING 217
SWIDTH 600 0
DWIDTH 6 0
BBX 7 8 0 0
BITMAP
22
1C
00
66
2C
5C
78
EC
ENDCHAR

STARTCHAR afii10076
ENCODING 218
SWIDTH 600 0
DWIDTH 6 0
BBX 6 5 0 0
BITMAP
6C
74
60
D0
D8
ENDCHAR

STARTCHAR afii10077
ENCODING 219
SWIDTH 600 0
DWIDTH 6 0
BBX 7 5 -1 0
BITMAP
3E
16
34
AC
EC
ENDCHAR

STARTCHAR afii10078
ENCODING 220
SWIDTH 600 0
DWIDTH 6 0
BBX 8 5 -1 0
BITMAP
63
36
6A
56
D4
ENDCHAR

STARTCHAR afii10079
ENCODING 221
SWIDTH 600 0
DWIDTH 6 0
BBX 6 5 0 0
BITMAP
6C
6C
78
D8
D8
ENDCHAR

STARTCHAR afii10080
ENCODING 222
SWIDTH 600 0
DWIDTH 6 0
BBX 6 5 0 0
BITMAP
38
6C
CC
D8
70
ENDCHAR

STARTCHAR afii10081
ENCODING 223
SWIDTH 600 0
DWIDTH 6 0
BBX 7 5 -1 0
BITMAP
7E
26
64
4C
CC
ENDCHAR

STARTCHAR afii10082
ENCODING 224
SWIDTH 600 0
DWIDTH 6 0
BBX 7 7 -1 -2
BITMAP
7C
36
26
6C
78
60
F0
ENDCHAR

STARTCHAR afii10083
ENCODING 225
SWIDTH 600 0
DWIDTH 6 0
BBX 6 5 0 0
BITMAP
38
6C
C0
CC
78
ENDCHAR

STARTCHAR afii10084
ENCODING 226
SWIDTH 600 0
DWIDTH 6 0
BBX 6 5 1 0
BITMAP
FC
B4
20
60
F0
ENDCHAR

STARTCHAR afii10085
ENCODING 227
SWIDTH 600 0
DWIDTH 6 0
BBX 6 7 0 -2
BITMAP
CC
6C
64
38
30
A0
C0
ENDCHAR

STARTCHAR afii10086
ENCODING 228
SWIDTH 600 0
DWIDTH 6 0
BBX 6 9 0 -2
BITMAP
18
08
38
5C
B4
A8
70
40
E0
ENDCHAR

STARTCHAR afii10087
ENCODING 229
SWIDTH 600 0
DWIDTH 6 0
BBX 6 5 0 0
BITMAP
6C
38
30
78
DC
ENDCHAR

STARTCHAR afii10088
ENCODING 230
SWIDTH 600 0
DWIDTH 6 0
BBX 7 6 0 -1
BITMAP
76
24
6C
48
FC
04
ENDCHAR

STARTCHAR afii10089
ENCODING 231
SWIDTH 600 0
DWIDTH 6 0
BBX 6 5 0 0
BITMAP
6C
C8
78
30
30
ENDCHAR

STARTCHAR afii10090
ENCODING 232
SWIDTH 600 0
DWIDTH 6 0
BBX 8 5 0 0
BITMAP
6B
2A
54
54
FC
ENDCHAR

STARTCHAR afii10091
ENCODING 233
SWIDTH 600 0
DWIDTH 6 0
BBX 8 7 0 -2
BITMAP
6B
2A
54
54
FE
04
04
ENDCHAR

STARTCHAR afii10092
ENCODING 234
SWIDTH 600 0
DWIDTH 6 0
BBX 5 5 1 0
BITMAP
F0
B0
38
58
F0
ENDCHAR

STARTCHAR afii10093
ENCODING 235
SWIDTH 600 0
DWIDTH 6 0
BBX 7 5 0 0
BITMAP
66
46
74
DC
EC
ENDCHAR

STARTCHAR afii10094
ENCODING 236
SWIDTH 600 0
DWIDTH 6 0
BBX 5 5 1 0
BITMAP
60
20
78
58
F0
ENDCHAR

STARTCHAR afii10095
ENCODING 237
SWIDTH 600 0
DWIDTH 6 0
BBX 6 5 0 0
BITMAP
38
4C
1C
88
70
ENDCHAR

STARTCHAR afii10096
ENCODING 238
SWIDTH 600 0
DWIDTH 6 0
BBX 7 5 -1 0
BITMAP
36
2A
7A
5A
CC
ENDCHAR

STARTCHAR afii10097
ENCODING 239
SWIDTH 600 0
DWIDTH 6 0
BBX 6 5 0 0
BITMAP
3C
6C
3C
68
D8
ENDCHAR

STARTCHAR afii61352
ENCODING 240
SWIDTH 600 0
DWIDTH 6 0
BBX 7 6 0 0
BITMAP
48
6E
6E
B0
B4
90
ENDCHAR

STARTCHAR afii10071
ENCODING 241
SWIDTH 600 0
DWIDTH 6 0
BBX 6 7 0 0
BITMAP
24
00
38
6C
FC
C0
78
ENDCHAR

STARTCHAR afii10099
ENCODING 242
SWIDTH 600 0
DWIDTH 6 0
BBX 6 9 0 -2
BITMAP
20
78
20
78
6C
C8
D8
18
30
ENDCHAR

STARTCHAR afii10100
ENCODING 243
SWIDTH 600 0
DWIDTH 6 0
BBX 7 8 0 0
BITMAP
04
08
00
7E
36
20
60
E0
ENDCHAR

STARTCHAR afii10101
ENCODING 244
SWIDTH 600 0
DWIDTH 6 0
BBX 6 5 0 0
BITMAP
38
6C
F0
CC
78
ENDCHAR

STARTCHAR afii10102
ENCODING 245
SWIDTH 600 0
DWIDTH 6 0
BBX 6 5 0 0
BITMAP
3C
74
38
98
F0
ENDCHAR

STARTCHAR afii10103
ENCODING 246
SWIDTH 600 0
DWIDTH 6 0
BBX 6 7 0 0
BITMAP
0C
00
38
18
10
30
FC
ENDCHAR

STARTCHAR afii10104
ENCODING 247
SWIDTH 600 0
DWIDTH 6 0
BBX 6 7 0 0
BITMAP
14
00
38
18
10
30
FC
ENDCHAR

STARTCHAR afii10105
ENCODING 248
SWIDTH 600 0
DWIDTH 6 0
BBX 7 9 -1 -2
BITMAP
06
00
3C
0C
08
18
18
30
E0
ENDCHAR

STARTCHAR afii10106
ENCODING 249
SWIDTH 600 0
DWIDTH 6 0
BBX 6 5 0 0
BITMAP
38
38
1C
B4
F8
ENDCHAR

STARTCHAR afii10107
ENCODING 250
SWIDTH 600 0
DWIDTH 6 0
BBX 6 5 0 0
BITMAP
58
58
FC
AC
F8
ENDCHAR

STARTCHAR afii10108
ENCODING 251
SWIDTH 600 0
DWIDTH 6 0
BBX 6 7 0 0
BITMAP
20
78
20
78
6C
D8
DC
ENDCHAR

STARTCHAR afii10109
ENCODING 252
SWIDTH 600 0
DWIDTH 6 0
BBX 6 8 0 0
BITMAP
08
10
00
6C
74
60
D0
D8
ENDCHAR

STARTCHAR section
ENCODING 253
SWIDTH 600 0
DWIDTH 6 0
BBX 7 7 0 -1
BITMAP
0E
12
78
44
3C
90
E0
ENDCHAR

STARTCHAR afii10110
ENCODING 254
SWIDTH 600 0
DWIDTH 6 0
BBX 6 10 0 -2
BITMAP
44
38
00
CC
6C
64
38
30
A0
C0
ENDCHAR

STARTCHAR afii10193
ENCODING 255
SWIDTH 600 0
DWIDTH 6 0
BBX 7 7 0 -2
BITMAP
76
24
6C
48
FC
20
60
ENDCHAR
ENDFONT
